# xmcd
# 
# Track frame offsets:
#     150
#     38826
#     68249
#     96568
#     133222
#     153158
#     173028
#     202574
# 
# Disc length: 2762
# 
# Revision: 1
# Processed by: cddbd v1.5.2PL0 Copyright (c) Steve Scherf et al.
# Submitted via: BonkEnc v1.0.15
# 
DISCID=650ac808
DTITLE=Philip Ardagh - Geschichten aus Bad Dreckskaff - Die Kuh die vom Himmel fiel - CD02
DYEAR=2010
DGENRE=Hörspiel
TTITLE0=Siebtes Kapitel: So ein Auflauf!
TTITLE1=Achtes Kapitel: Der lange Arm des Gesetzes
TTITLE2=Neuntes Kapitel: Eine alarmierende Entdeckung
TTITLE3=Zehntes Kapitel: Ein neuer Anfang
TTITLE4="Eine Kuh?", keuchte Mango.
TTITLE5=Elftes Kapitel: Mit eigenen Worten
TTITLE6=Zwölftes Kapitel: Klatsch! Bravo! Hurra!
TTITLE7=Bitte hier entlang
EXTD=
EXTT0=
EXTT1=
EXTT2=
EXTT3=
EXTT4=
EXTT5=
EXTT6=
EXTT7=
PLAYORDER=
